<?xml version="1.0" encoding="UTF-8" standalone="no"?>
<!-- Created with Inkscape (http://www.inkscape.org/) -->

<svg
   width="64"
   height="64"
   viewBox="0 0 16.933333 16.933333"
   version="1.1"
   id="svg1"
   inkscape:version="1.4 (e7c3feb100, 2024-10-09)"
   sodipodi:docname="icon.svg"
   xmlns:inkscape="http://www.inkscape.org/namespaces/inkscape"
   xmlns:sodipodi="http://sodipodi.sourceforge.net/DTD/sodipodi-0.dtd"
   xmlns="http://www.w3.org/2000/svg"
   xmlns:svg="http://www.w3.org/2000/svg">
  <sodipodi:namedview
     id="namedview1"
     pagecolor="#ffffff"
     bordercolor="#000000"
     borderopacity="0.25"
     inkscape:showpageshadow="2"
     inkscape:pageopacity="0.0"
     inkscape:pagecheckerboard="0"
     inkscape:deskcolor="#d1d1d1"
     inkscape:document-units="mm"
     inkscape:zoom="6.304321"
     inkscape:cx="37.989817"
     inkscape:cy="24.189758"
     inkscape:window-width="1856"
     inkscape:window-height="982"
     inkscape:window-x="0"
     inkscape:window-y="0"
     inkscape:window-maximized="1"
     inkscape:current-layer="layer1" />
  <defs
     id="defs1" />
  <g
     inkscape:label="Layer 1"
     inkscape:groupmode="layer"
     id="layer1">
    <path
       id="path19"
       style="font-size:14.1111px;font-family:'The Battle Continuez';-inkscape-font-specification:'The Battle Continuez';text-align:start;writing-mode:lr-tb;direction:ltr;text-anchor:start;fill:#333333;fill-opacity:1;stroke-width:0.79375;stroke-linecap:round;stroke-linejoin:round"
       d="M 5.8492554 2.0376017 C 5.7134612 2.0415317 5.5781765 2.0499734 5.4435954 2.0624064 C 4.6201177 2.1948068 3.8742074 2.5742397 3.0489095 2.7031942 C 1.8912597 3.1807049 0.69327454 4.0940476 0.6619751 5.4590983 C 0.53148518 6.3369968 0.56593027 7.291911 1.0273275 8.0744425 C 0.93722161 9.0682014 1.1472041 10.07091 1.2676229 11.051005 C 1.5603868 12.1293 2.6092534 12.905137 3.6271688 13.10721 C 3.7671459 13.841738 4.1360965 14.877154 4.9981445 14.949475 C 5.9555325 14.818857 6.1651971 13.674297 6.0017008 12.89637 C 7.0152082 12.709421 8.0476189 12.496897 8.957076 11.990483 C 9.037188 12.906225 9.3396741 13.830008 9.3963257 14.759823 C 9.8310189 16.03177 11.87223 15.846689 12.171867 14.591874 C 12.463173 13.864886 11.972364 13.139288 12.005986 12.407511 C 11.697513 11.805866 12.373076 12.431421 12.484509 12.652458 C 13.03129 13.309606 13.507754 14.390867 14.532963 14.273547 C 15.541817 14.231467 16.212816 13.045272 15.867249 12.20494 C 15.666663 11.379757 14.750212 11.046653 14.451314 10.278959 C 13.710002 9.3515973 12.698169 8.6865123 11.999784 7.720459 C 12.311639 7.5502887 12.863177 7.0378673 13.218831 7.5158203 C 13.615007 7.6693257 13.386865 8.4667157 13.863753 8.7286662 C 14.543499 9.4677915 15.642554 8.6829652 15.617135 7.8201945 C 15.480791 7.2874713 15.902493 7.0537338 16.10341 6.6187174 C 16.283714 5.9174276 16.311337 5.1662597 16.486332 4.4844808 C 16.507532 3.3194869 14.882501 2.8116829 14.003796 3.3925578 C 13.441349 3.5980006 13.214205 4.2708777 12.557373 4.3227336 C 12.112192 4.3789286 11.453503 5.1417996 11.529529 4.2912109 C 11.482999 3.5466561 10.949389 2.9399887 10.315649 2.6313639 C 9.8448483 2.1178592 8.8680772 2.3281179 8.5235107 2.8127482 C 7.7644684 2.2047288 6.7998146 2.01006 5.8492554 2.0376017 z " />
    <path
       id="text2"
       style="font-size:14.1111px;font-family:'The Battle Continuez';-inkscape-font-specification:'The Battle Continuez';text-align:start;writing-mode:lr-tb;direction:ltr;text-anchor:start;fill:#aaaaaa;fill-opacity:1;stroke-width:0.79375;stroke-linecap:round;stroke-linejoin:round"
       d="m 6.4106551,3.0652376 -0.927633,0.033059 c -0.070176,0 -0.1050992,0.021765 -0.1050992,0.065625 h -0.033059 l -0.032566,-0.032565 h -0.066118 l -0.032566,0.032566 C 4.9899285,3.1814662 4.6913531,3.3044379 4.3185453,3.5325087 L 4.2198607,3.4994496 4.1542352,3.5655677 4.0886106,3.4994496 3.4239704,3.6642523 C 3.2266012,3.7958318 3.0838922,3.8616215 2.9961729,3.8616215 L 2.5619619,4.1246152 1.9303807,4.7231364 c -0.1140344,0 -0.2233558,0.5526338 -0.3286192,1.6578987 l 0.07204,0.2304283 c 0,0.5394754 0.142709,0.927634 0.4277975,1.1644768 v 0.065626 L 1.9964998,8.6705151 c 0.092105,0.399123 0.1599236,0.9411212 0.2037828,1.6253329 l -0.033059,0.09868 0.066119,0.229936 c 0.078947,0.407895 0.3112394,0.782896 0.6972057,1.125002 L 3.062292,11.7169 c 0.096491,0.135965 0.3945731,0.269573 0.8945739,0.401152 h 0.03306 l 0.032566,-0.03306 c 0.3947374,0.02193 0.6163946,0.06595 0.6646403,0.131744 v 0.03306 l -0.03306,0.03257 v 0.03306 l 0.066119,0.09868 V 12.6771 l -0.066119,0.09868 v 0.131744 l 0.03306,0.03306 c -0.039474,0 -0.06124,0.07895 -0.065625,0.236843 v 0.06563 l 0.098685,0.03306 0.032565,-0.131744 0.1317437,-0.203784 h 0.03306 v 1.032733 h 0.065625 v -1.131417 l -0.065625,-0.230429 0.032565,-0.131743 v -0.03257 l -0.032565,-0.03306 c 0,-0.07895 0.1315795,-0.210527 0.3947374,-0.394738 0.1798252,-0.02193 0.2694083,-0.05483 0.2694083,-0.09868 0.7368436,-0.122807 1.1776353,-0.212884 1.3223723,-0.269902 0.4210535,-0.08334 0.6315803,-0.149123 0.6315803,-0.197369 0.5307023,-0.135965 0.7963839,-0.256415 0.7963839,-0.361678 0.1096489,0 0.1643091,-0.02429 0.1643091,-0.07253 h 0.033059 l 0.032566,0.03947 h 0.033059 l 0.6972054,-0.565467 c 0.127805,-0.0079 0.2225834,-0.02202 0.2930929,-0.04046 0.034153,0.367271 0.078515,0.560035 0.1347046,0.560035 l 0.256579,0.802798 -0.033056,0.03947 0.033056,0.03257 0.072538,0.40806 c 0,0.250001 0.122478,0.844137 0.368094,1.782735 l -0.07204,0.112007 0.03257,0.289639 0.296053,0.150987 c 0.333334,0 0.528675,-0.219134 0.585692,-0.657732 v -0.03947 h -0.07253 v -0.28964 c -0.100877,-0.105263 -0.150987,-0.227742 -0.150987,-0.368093 v -0.546218 l -0.07253,-0.07254 c -0.0658,-0.535077 -0.138173,-0.864025 -0.21712,-0.986833 -0.105264,-0.63158 -0.228236,-1.080979 -0.368587,-1.348524 V 10.06542 l 0.07895,-0.112007 V 9.5853199 c -0.05263,-0.039474 -0.08958,-0.2084986 -0.111514,-0.5067446 v -0.039474 c 0.144737,0 0.217106,0.1336075 0.217106,0.401152 l -0.03306,0.039474 v 0.072534 h 0.07254 l 0.07204,-0.2960535 h 0.07254 c 0.486842,0.4429834 0.730265,0.7238508 0.730265,0.8422722 0.60965,0.574562 0.914311,0.940463 0.914311,1.098358 v 0.03306 l 0.112008,-0.03306 0.217105,0.112006 c 0,0.166667 0.04809,0.250165 0.144573,0.250165 0.267544,0.105264 0.487173,0.409925 0.658225,0.914312 0.171053,0.01316 0.25658,0.04809 0.25658,0.105099 0.07456,0 0.111513,0.03745 0.111513,0.112007 l 0.03306,0.03947 c 0.100877,0.33772 0.234485,0.506745 0.401152,0.506745 h 0.07254 c 0.214912,0 0.374836,-0.0835 0.480099,-0.250166 v -0.4801 c 0,-0.100877 -0.0744,-0.232456 -0.22352,-0.394738 -0.403509,-0.25 -0.732458,-0.640681 -0.986845,-1.171384 C 13.399873,10.699029 13.266265,10.527976 13.266265,10.427098 12.722404,10.014817 12.406614,9.734443 12.318894,9.5853199 11.783806,9.151109 11.516096,8.8353179 11.516096,8.6379487 11.099428,8.3923348 10.89093,8.2101522 10.89093,8.0917303 10.623386,7.8812036 10.489778,7.6489115 10.489778,7.3945246 L 11.14751,6.9208399 c 0.219299,-0.035088 0.329113,-0.083663 0.329113,-0.1450664 0.399123,-0.1491235 0.631416,-0.282731 0.697205,-0.4011529 0.657896,-0.1578946 0.986844,-0.3421062 0.986844,-0.5526329 0.09649,0 0.179991,-0.034923 0.250166,-0.1050982 h 0.112006 c 0.144737,0.087719 0.217107,0.3179833 0.217107,0.6907911 l -0.03306,0.2565792 0.144572,0.1115137 0.03947,-0.5526329 v -0.07204 l 0.105592,-0.2896382 -0.07253,-0.072534 0.112006,-0.1445728 v 0.072534 c 0.166668,0.070175 0.300275,0.1557023 0.401153,0.2565791 l -0.03947,0.1050992 c 0,0.074562 0.02429,0.1120064 0.07253,0.1120064 l -0.03306,0.1840464 v 0.25658 c 0,0.6710539 0.02429,1.1447395 0.07253,1.421056 h 0.07204 V 6.5917271 c 0,-0.078947 0.08552,-0.2500014 0.256579,-0.5131593 0.09649,-0.057018 0.145067,-0.1293862 0.145067,-0.2171055 h 0.07204 v 0.2565791 l 0.07254,0.072533 h 0.03947 V 5.8614623 c 0,-0.1798252 0.06124,-0.3989597 0.184046,-0.6577321 0,-0.092106 -0.03695,-0.1887614 -0.111513,-0.2896392 l 0.07204,-0.078947 -0.03257,-0.033059 0.03257,-0.1115137 c 0,-0.048246 -0.03493,-0.072534 -0.1051,-0.072534 C 15.123553,4.394353 15.013746,4.2232999 14.877781,4.104879 h -0.07895 l 0.07895,0.1120064 v 0.039474 l -0.111514,0.1050992 h -0.03947 l -0.105592,-0.072533 h -0.22352 c -0.153509,0.083333 -0.311404,0.278674 -0.473685,0.585692 l -0.51316,0.2565792 c -0.574562,0.153509 -0.927798,0.298247 -1.059377,0.434212 -0.171053,0.017544 -0.25658,0.068147 -0.25658,0.151481 -0.241229,0.057018 -0.361679,0.1050982 -0.361679,0.1445728 -0.364036,0.2324563 -0.546218,0.3660638 -0.546218,0.4011519 h -0.184047 c -0.346491,0.1315795 -0.55499,0.289475 -0.625165,0.4736857 h -0.03257 l -0.03947,-0.032566 h -0.07253 l -0.03305,0.032566 C 10.156302,6.4687554 10.106192,6.335147 10.049171,6.335147 l 0.03947,-0.5462184 v -0.039474 l -0.03949,-0.032565 c 0,-0.2675445 0.08552,-0.4016466 0.256579,-0.4016466 l 0.03947,0.2501656 h 0.07204 c 0.04825,-0.2500004 0.109978,-0.4078959 0.18454,-0.4736856 V 4.8351437 l -0.03947,-0.033059 C 10.483368,4.2187501 10.410998,3.9272461 10.345208,3.9272461 10.029417,3.6772457 9.8715218,3.5304796 9.8715218,3.4866205 l -0.039473,0.032565 C 9.7136245,3.4665547 9.6038104,3.3703918 9.5029326,3.2300403 l -0.072533,0.07204 0.1120073,0.1120073 -0.151481,0.2565792 -0.1050991,-0.039474 c -0.092105,0 -0.1533448,0.1098141 -0.1840464,0.3291129 l 0.07204,0.072039 -0.1115137,0.1450664 v 0.1115137 l 0.039474,0.039474 C 8.8824819,4.4994521 8.7726678,4.7297161 8.7726678,5.0191901 L 8.8846751,5.3152429 C 8.8364295,5.5082266 8.8121414,5.8002233 8.8121414,6.1905742 8.978809,6.6116277 9.062307,6.9886577 9.062307,7.3219919 v 0.2960537 c 0.052631,0.052631 0.1027417,0.2454497 0.1509874,0.5787839 l -0.039474,0.039474 v 0.019737 C 8.9788348,8.122728 8.8392653,8.0389349 8.7924051,8.0389349 v -0.032566 l 0.033059,-0.033059 v -0.03306 H 8.7267796 C 8.2750245,7.7384956 7.8231042,7.6048871 7.3713491,7.5390974 7.055559,7.4469926 6.8450313,7.3371785 6.739768,7.2099845 v -0.032565 l 0.033059,-0.033059 v -0.03306 L 6.739768,7.0787345 C 6.9502947,6.7673309 7.1061622,6.6114634 7.207039,6.6114634 l 0.2629938,0.2368428 h 0.03306 V 6.8088326 L 7.3713491,6.6114634 c 0,-0.1754386 0.087555,-0.4299897 0.2629937,-0.7633239 v -0.032565 l -0.032565,-0.03306 h 0.032565 L 7.6017774,5.6838294 C 7.6894967,5.2978641 7.7770518,5.065572 7.8647711,4.9866237 8.1323156,4.6445185 8.2659231,4.3788369 8.2659231,4.1902407 V 3.9928715 C 8.0641684,3.7955033 7.9634557,3.6750524 7.9634557,3.6311932 7.7660865,3.5654035 7.546952,3.4424319 7.3057236,3.2626067 Z M 3.4239704,4.0915561 c 0.2236843,0.017544 0.3355274,0.061568 0.3355274,0.1317437 0,0.135965 -0.1229726,0.2695735 -0.3685865,0.401152 h -0.065626 l -0.065625,-0.065625 c 0,-0.096491 0.054661,-0.2412293 0.1643101,-0.434212 z m 11.6709186,0.1648028 0.07253,0.1776319 c 0.122808,0.078948 0.184047,0.1533448 0.184047,0.223521 h 0.07253 c 0,-0.1008778 0.02429,-0.151481 0.07254,-0.151481 0,-0.070175 -0.06173,-0.1531805 -0.18454,-0.2496719 l -0.105099,0.032566 h -0.03947 l -0.03947,-0.032566 z M 6.0095031,4.3945171 c 0.2894741,0.035088 0.434212,0.089748 0.434212,0.1643101 v 0.033059 c -0.096491,0 -0.1754395,0.06579 -0.2368428,0.1973692 -0.02193,0.1754386 -0.054825,0.2629937 -0.098685,0.2629937 L 5.845194,5.5195203 5.3448638,5.782514 4.7201909,5.9468241 4.0555506,6.2497851 C 3.744147,6.4690839 3.5224907,6.5784043 3.3909113,6.5784043 3.3207351,6.6705101 3.23318,6.725664 3.1279166,6.7432071 2.816513,6.6818039 2.6606465,6.5719898 2.6606465,6.4140952 c 0,-0.070176 0.090077,-0.2260427 0.2699019,-0.4672711 h 0.065625 l -0.065625,0.3355274 0.098685,0.098684 -0.03306,-0.1643091 c 0.1096499,0 0.1648038,-0.044024 0.1648038,-0.1317437 C 3.2618535,5.8174379 3.371174,5.6838294 3.4895959,5.6838294 v -0.065625 h -0.131251 l -0.033059,0.032565 C 3.2901979,5.7384894 3.2573029,5.782514 3.2266009,5.782514 V 5.5520858 c 0,-0.096491 0.076919,-0.2169413 0.2304283,-0.3616784 l 0.16431,0.033059 h 0.033059 L 3.6869641,5.1904074 3.989926,4.7892555 C 4.261856,4.6708336 4.4263303,4.572149 4.483348,4.4932017 h 0.065626 l 0.1050982,0.065625 c 0,0.078947 -0.056688,0.1776319 -0.1707237,0.2960528 v 0.03306 C 4.7070323,4.8046063 4.8188754,4.7059217 4.8188754,4.5918863 L 5.2136128,4.4601426 h 0.065625 l 0.1317437,0.098685 h 0.07204 c 0.087719,-0.06579 0.2633231,-0.1204499 0.5264816,-0.1643105 z m 3.8620158,0.00642 h 0.1050992 l 0.072538,0.072534 v 0.2891446 c 0,0.092106 -0.1821834,0.1538385 -0.546219,0.1845401 H 9.469878 v -0.033059 c 0,-0.1842107 0.1341021,-0.3552638 0.4016454,-0.5131593 z M 4.1872943,5.0853102 C 3.9109788,5.2388193 3.7682698,5.3395329 3.7594978,5.3877785 v 0.098685 h 0.065625 L 3.8912415,5.3547194 4.2529198,5.1509357 V 5.0853102 Z M 2.8254492,5.2560349 h 0.072039 l 0.098685,0.066118 -0.032565,0.3616783 c 0,0.1096499 -0.078948,0.197205 -0.2368428,0.2629947 h -0.098685 c -0.061403,0 -0.1054276,-0.1315794 -0.1317437,-0.3947383 l 0.033059,-0.1643092 c 0.1184219,0 0.2171065,-0.044024 0.2960535,-0.1317435 z m 4.4141562,0.526481 H 7.5030928 C 7.3758989,6.2693591 7.2417977,6.5127807 7.1014463,6.5127807 c -0.118421,0 -0.2059761,-0.05466 -0.2629938,-0.1643091 V 6.2167279 C 7.0051191,5.9623411 7.1387276,5.817604 7.2396054,5.7825159 Z m 7.8883426,0.4801002 v 0.1845401 h 0.07895 L 15.16742,6.2626161 Z M 6.3119715,6.4471562 h 0.033059 l 0.065625,0.2629937 c -0.017543,0.289474 -0.050438,0.434212 -0.098684,0.434212 H 6.0751286 l -0.065626,-0.065625 -0.098685,0.032566 -0.098685,-0.032566 h -0.033059 l -0.032565,0.032566 -0.1317437,-0.098685 0.065625,-0.16431 C 5.9260051,6.7474313 6.1365319,6.6138228 6.3119715,6.4471562 Z m 0.1317436,0 h 0.033059 c 0.1666666,0.061403 0.2653512,0.1378288 0.2960528,0.2299346 v 0.066118 L 6.5423997,7.0126182 h -0.03306 L 6.4767742,6.8088345 6.5093397,6.6770908 Z M 5.4435475,8.2037396 h 0.2699019 l 0.1973692,0.065624 0.1317436,-0.033059 c 0.127194,0 0.249672,0.044024 0.3680929,0.1317437 0.9517568,0 1.6142048,0.1993982 1.9870116,0.5985211 0.280703,0.144738 0.4340478,0.2545521 0.4603629,0.3291129 v 0.033059 C 8.7834688,9.4471618 8.6518894,9.5590042 8.4632922,9.6642675 8.0948709,9.7607589 7.8737074,9.8371847 7.7991456,9.8942023 L 7.700461,9.8616368 7.1345063,10.025946 v 0.06563 h 0.1712173 l 0.3616783,-0.098685 h 0.033059 l 0.032566,0.033059 0.1973692,-0.033059 h 0.1055918 l 0.065626,0.066118 -0.1050991,0.03256 c 0,0.07018 -0.06579,0.138488 -0.1973692,0.204277 -0.3947374,0.05702 -0.5921066,0.122808 -0.5921066,0.197369 -0.3552637,0 -0.5328956,0.05466 -0.5328956,0.16431 H 6.3780896 c -0.070175,0 -0.1713825,0.04402 -0.302961,0.131744 -0.1754395,-0.04825 -0.3176549,-0.136293 -0.4273038,-0.263487 h -0.033059 l -0.03306,0.03306 -0.032565,0.16431 -0.033059,0.03306 c -0.7105275,0.05263 -1.0657923,0.09666 -1.0657923,0.131744 l -0.033059,-0.03306 c 0.013158,-0.153509 0.057182,-0.230428 0.1317437,-0.230428 v -0.09869 h -0.03306 c -0.070175,0 -0.1466009,0.03289 -0.2299346,0.09869 h -0.098685 l -0.066118,-0.06563 c -0.04386,0 -0.065626,0.03289 -0.065626,0.09869 h -0.065625 l -0.1648037,-0.03306 v -0.06563 h 0.1973696 v -0.06562 H 3.8251223 L 3.6213395,10.328414 v -0.03256 l 0.033059,-0.03306 v -0.03306 c 0,-0.04825 -0.032895,-0.07204 -0.098685,-0.07204 L 3.3583449,9.7955178 3.2596603,9.4668981 V 8.999628 C 3.4087838,8.5127848 3.5621286,8.2693622 3.7200241,8.2693622 L 4.3185453,8.5392651 4.5820326,8.4336723 h 0.039474 l 0.13125,0.4016456 h 0.066119 c 0,-0.1052634 0.021765,-0.1821826 0.065625,-0.2304283 V 8.4336723 l 0.1317437,-0.065626 h 0.065626 c 0.06579,0 0.098685,0.044024 0.098685,0.1317437 h 0.033059 C 5.3671219,8.3725975 5.4435475,8.2739129 5.4435475,8.2037377 Z m 1.2305959,1.7565832 -0.03306,0.032566 0.1317436,0.1973692 0.1973692,-0.03257 v -0.06612 c 0,-0.0307 -0.098685,-0.07423 -0.2960528,-0.1312512 z m 2.8154674,0.2299352 h 0.013322 v 0.09227 l 0.072534,0.07253 c 0.0012,0.01505 0.00271,0.02494 0.00394,0.03947 h -0.089803 z" />
  </g>
</svg>
