<?xml version="1.0" encoding="UTF-8" standalone="no"?>
<!-- Created with Inkscape (http://www.inkscape.org/) -->

<svg
   width="64"
   height="64"
   viewBox="0 0 16.933333 16.933333"
   version="1.1"
   id="svg1"
   inkscape:version="1.4 (e7c3feb100, 2024-10-09)"
   sodipodi:docname="icon.svg"
   xmlns:inkscape="http://www.inkscape.org/namespaces/inkscape"
   xmlns:sodipodi="http://sodipodi.sourceforge.net/DTD/sodipodi-0.dtd"
   xmlns="http://www.w3.org/2000/svg"
   xmlns:svg="http://www.w3.org/2000/svg">
  <sodipodi:namedview
     id="namedview1"
     pagecolor="#ffffff"
     bordercolor="#000000"
     borderopacity="0.25"
     inkscape:showpageshadow="2"
     inkscape:pageopacity="0.0"
     inkscape:pagecheckerboard="0"
     inkscape:deskcolor="#d1d1d1"
     inkscape:document-units="mm"
     inkscape:zoom="8.9156563"
     inkscape:cx="39.53719"
     inkscape:cy="30.900698"
     inkscape:window-width="1856"
     inkscape:window-height="982"
     inkscape:window-x="0"
     inkscape:window-y="0"
     inkscape:window-maximized="1"
     inkscape:current-layer="layer1" />
  <defs
     id="defs1" />
  <g
     inkscape:label="Layer 1"
     inkscape:groupmode="layer"
     id="layer1">
    <path
       id="path1"
       style="font-style:normal;font-variant:normal;font-weight:normal;font-stretch:normal;font-size:10.6303px;font-family:'The Battle Continuez';-inkscape-font-specification:'The Battle Continuez';text-align:start;writing-mode:lr-tb;direction:ltr;text-anchor:start;fill:#aaaaaa;fill-opacity:1;stroke:#333333;stroke-width:0.79375;stroke-linecap:round;stroke-linejoin:round;stroke-dasharray:none;stroke-opacity:1"
       d="m 2.8291054,3.6683866 -0.033574,0.027068 c -0.152657,0.090254 -0.2862863,0.3275841 -0.4001968,0.7118898 -0.083755,0.0076 -0.095736,0.4069116 -0.036042,1.1976872 l 0.040643,0.1170147 -0.00373,0.2897847 0.013025,0.1435413 -0.027078,0.032482 -0.050266,0.4453363 0.1127975,0.5746624 -0.030376,0.00276 c -0.00257,0.1932494 -0.042689,0.3699105 -0.120669,0.5297912 l 0.040092,0.1771157 0.013025,0.1435413 -0.0081,0.1754835 0.034147,0.111599 C 2.3854744,8.4877318 2.2544933,8.6383105 1.9796382,8.7999714 L 1.7131378,8.7881237 C 1.5496163,8.802962 1.3767205,8.9355208 1.1943064,9.1853018 l 0.0054,0.05956 0.0466,0.1164741 -0.028116,0.087223 0.0054,0.05956 C 1.2373434,9.6596756 1.465633,9.7155507 1.9083379,9.6753786 L 2.0767505,9.605451 2.2913223,9.6406268 C 2.2071471,9.9981084 2.1713629,10.244415 2.1836678,10.380018 l 0.092853,1.023253 -0.034171,0.02712 c -0.00843,0.571771 -0.053962,0.907455 -0.1373701,1.007512 l 0.00762,0.08397 0.026527,0.02762 -0.023825,0.0022 -0.036267,0.268717 c 0.00796,0.08774 -0.00577,0.15506 -0.041671,0.20255 l 0.029347,0.323414 0.1376064,0.186283 c 0.2911482,-0.02642 0.465884,-0.1387 0.5242901,-0.337022 l -0.017889,-0.197184 c -0.013753,-0.151557 0.016266,-0.242775 0.089872,-0.273581 l -0.054265,-0.260502 c -0.00869,-0.09572 0.037265,-0.236599 0.1370033,-0.422582 l -0.00216,-0.02382 -0.043996,-0.147337 0.052049,-0.0948 -0.0374,-0.08127 0.021618,-0.09264 c 0.059825,-0.0054 0.088329,-0.02588 0.085072,-0.06177 l -0.0054,-0.05956 -0.067776,-0.07852 -0.028753,-0.316859 0.07782,-0.737283 -0.013566,-0.149498 0.1261491,-0.270868 -0.0054,-0.05956 -0.038439,-0.026538 c 0.039884,-0.00362 0.056829,-0.035517 0.0514,-0.095341 0.224447,-0.096768 0.3334692,-0.1832527 0.3265929,-0.2590311 l 1.2144422,-0.1102015 0.1782398,0.038473 c 0.7012083,0.016795 1.1290638,0.096223 1.2827699,0.2391005 0.1946679,0.1954574 0.3408093,0.4153351 0.4393883,0.6597261 0.1409953,0.268687 0.216841,0.457248 0.2266126,0.564933 0.1551466,0.203066 0.2365562,0.350243 0.2448802,0.441975 0.1935895,0.139258 0.3368797,0.3211 0.4296607,0.545909 l 0.036914,0.4068 0.3158894,0.291408 c 0.073578,0.146127 0.2097961,0.250035 0.4084743,0.312431 l 0.1197171,-0.01086 0.029409,-0.0068 c -0.027884,0.08511 -0.036866,0.189335 -0.025502,0.314579 0.010495,0.115662 0.1365899,0.180209 0.379147,0.194389 l 0.057466,-0.101297 0.1402763,0.08335 0.095296,-0.0086 c 0.1265494,-0.06777 0.1858362,-0.149149 0.1771503,-0.244869 0.4231397,-0.122842 0.6288283,-0.25044 0.6168851,-0.382056 l 0.1343318,0.01783 0.1500595,-0.139722 0.344451,-0.194596 0.02978,-0.0027 c 0.03589,-0.0033 0.07231,0.0482 0.10999,0.153358 0.265757,0.04827 0.405195,0.143945 0.418224,0.287527 -0.06382,0.0058 -0.09333,0.03029 -0.08934,0.07416 l 0.006,0.06612 0.214495,0.1733 0.08995,-0.07421 0.02978,-0.0027 0.03899,0.0325 0.0027,0.02978 -0.03245,0.03957 0.0027,0.02978 0.07482,0.0899 0.04124,0.454448 0.06551,-0.0059 -0.0087,-0.0959 0.03358,-0.364554 -0.0087,-0.09594 0.02978,-0.0027 0.107197,0.05632 0.0959,-0.0087 0.08725,-0.104 -0.0033,-0.03632 -0.07477,-0.0893 0.239369,-0.287147 -0.0028,-0.03038 c -0.111614,-0.166883 -0.245497,-0.317234 -0.402468,-0.451774 -0.06486,-0.183108 -0.130366,-0.307922 -0.196702,-0.374284 l -0.01789,-0.197141 0.230601,-0.310973 c 0.277744,-0.08552 0.412995,-0.173783 0.404671,-0.265515 l 0.404024,-0.266057 c 0.229181,-0.221856 0.597921,-0.474567 1.107017,-0.758013 0.423175,-0.3882783 0.666805,-0.585391 0.730618,-0.5911816 0.535573,-0.3461658 0.799061,-0.5649196 0.790737,-0.6566511 l 0.03632,-0.0033 0.03248,0.027078 0.03574,-0.00324 0.302819,-0.2562739 0.24476,-0.154923 c -0.0058,-0.063814 0.03519,-0.099876 0.122929,-0.1078374 0.279599,-0.2867467 0.41685,-0.4623022 0.41106,-0.5261156 L 16.066582,7.6303797 C 15.908892,7.487863 15.734281,7.3828699 15.543216,7.3157629 15.501531,7.2552067 15.248696,7.1037456 14.784284,6.8603841 14.472123,6.788181 14.166929,6.6851177 13.86928,6.5512801 13.721373,6.4279817 13.53692,6.3238816 13.31613,6.239366 12.427499,6.0626476 11.976478,5.8962262 11.962364,5.7406812 11.651274,5.7689103 11.206643,5.5483427 10.629147,5.0779936 10.426841,5.019949 10.324302,4.9744863 10.321407,4.9425796 9.3345376,4.6581616 8.8365959,4.462271 8.8268243,4.3545859 8.4417879,4.2769324 8.1894289,4.1373315 8.0705391,3.9349976 L 7.9064168,3.9859212 7.678895,4.0065671 7.5775984,3.9491023 C 7.5975035,4.1684606 7.5440411,4.2921656 7.4178627,4.3197002 L 7.2473081,4.6306281 7.4856917,5.0671866 c 0.1526204,0.1309131 0.2640139,0.2958096 0.3343196,0.4945098 0.079357,0.298408 0.1503205,0.4550696 0.2119547,0.4695827 l 0.00324,0.035736 -0.033631,0.033077 0.0033,0.036333 0.077517,0.1196737 0.095297,-0.00865 -0.006,-0.066112 -0.070918,-0.053616 C 8.108421,5.9018438 8.130705,5.7690639 8.167327,5.7295503 l -0.015187,-0.167366 0.02978,-0.0027 c 0.099709,-0.00905 0.1913695,0.1570387 0.2747047,0.4993189 l 0.5365447,1.1943705 -0.02379,0.1348717 0.038977,0.032494 c 0.114449,0.7295104 0.2231077,1.089499 0.3268049,1.0800893 L 9.5590487,9.167895 C 9.7417159,9.5856066 9.8470735,9.7933142 9.8749916,9.7907809 9.9760685,10.328489 10.08844,10.591709 10.212078,10.58049 l -0.02168,0.164707 c 0.0062,0.0678 0.0589,0.161428 0.158221,0.281094 l -0.0032,0.362394 c -0.195828,0.234914 -0.4671017,0.367864 -0.8140861,0.39935 -0.1178621,0.1635 -0.2406584,0.251233 -0.3682852,0.262814 -0.1902662,0.106299 -0.3302646,0.199876 -0.4388945,0.285435 l -0.01616,-0.178086 C 8.6170913,11.776397 8.5497669,11.587661 8.5058953,11.591642 L 8.5346623,11.504962 8.187796,10.944934 C 7.9464125,10.411914 7.7732872,10.098056 7.6681574,10.003044 7.477189,9.3609009 7.3322075,9.0444875 7.2324992,9.0535352 7.1553024,8.867524 7.0854571,8.7450883 7.0238298,8.6863418 L 6.3292907,8.1398472 C 6.2212803,7.9244627 6.1230444,7.8171074 6.0345771,7.8170928 6.0255293,7.7173844 5.9706366,7.643791 5.8698496,7.5966402 5.7767142,7.3236095 5.5974002,6.9700322 5.3327957,6.5356293 5.1954559,6.0856568 5.0556562,5.8044842 4.9128218,5.6927889 4.8555668,5.5049681 4.8069377,5.4129508 4.7670543,5.4165699 4.6590513,5.1569517 4.5892659,5.0285589 4.5573593,5.0314542 4.3746856,4.6579766 4.2501797,4.4645109 4.1845569,4.4503598 3.9728865,4.0232171 3.8172037,3.8141244 3.7174954,3.8231722 3.5956958,3.6773988 3.4254828,3.6142698 3.2061245,3.634175 Z m 0.489596,2.205688 0.1137609,-0.010323 c 0.2153699,-0.019543 0.441914,0.1045447 0.6793531,0.3725234 0.087322,0.3419182 0.2272509,0.6026394 0.4204711,0.7821436 0.2921391,0.5605819 0.452787,0.9337083 0.4817618,1.1200742 -0.035894,0.00326 -0.049979,0.044814 -0.04274,0.1245811 l -1.801116,0.1634377 c -0.00905,-0.099709 -0.041829,-0.1548683 -0.099112,-0.165755 l -0.00324,-0.035736 0.021662,-0.025987 -0.00276,-0.030376 -0.041714,-0.194984 0.023825,-0.00216 0.026537,-0.038438 C 3.0747621,7.7057381 3.0889404,7.5492863 3.1375388,7.4644529 l -0.00811,-0.089342 C 3.1138695,7.2036127 3.1508546,6.9486613 3.2408267,6.6107608 3.2517579,6.288075 3.2777028,6.0426617 3.3187009,5.8740733 Z M 9.0074612,5.6172831 c 0.231323,-0.020991 0.4343257,0.068921 0.6094148,0.2701773 l -0.083354,0.1402767 0.00594,0.065516 0.07151,0.060168 0.1770946,-0.2454653 0.029778,-0.0027 0.4063344,0.1564929 -0.02119,0.1040096 0.08082,0.1560053 0.05957,-0.00541 c -0.0018,-0.1084076 0.02733,-0.1658187 0.08715,-0.1712475 l 0.06611,-0.006 0.480552,0.2464403 0.05957,-0.00541 0.03357,-0.033673 0.07421,0.089948 0.906345,0.2798643 c 0.266488,0.012008 0.527201,0.1191085 0.78278,0.3211023 0.373434,0.082728 0.682555,0.2290813 0.926894,0.4401375 0.147567,-0.013391 0.293009,0.1484163 0.436168,0.4852678 l 0.02335,0.2573025 -0.03308,0.039032 c -0.08376,0.0076 -0.123833,0.031677 -0.120214,0.07156 l 0.0092,0.1018491 c 0.004,0.043872 0.03802,0.062605 0.101841,0.056814 l -0.185742,0.1435626 0.05639,0.2242783 c -0.07578,0.00688 -0.199523,0.084176 -0.371042,0.2324383 -0.199808,0.1910416 -0.628907,0.5133175 -1.28741,0.9671459 -0.08666,0.01992 -0.127634,0.05598 -0.122928,0.10784 -0.11566,0.0105 -0.356343,0.130748 -0.72149,0.36092 l -0.164111,-0.01513 -0.01837,0.128376 c -0.249115,0.179431 -0.389575,0.313014 -0.421859,0.400389 -0.203404,0.01846 -0.37105,-0.250271 -0.501846,-0.805386 l -0.01465,-0.161408 -0.07146,-0.05957 C 10.24607,9.6284639 10.164738,9.4384163 10.108902,9.4434829 l 0.0065,-0.2594087 C 10.047999,8.8845744 9.9725235,8.6497477 9.8887979,8.4804136 L 9.8654496,8.2231114 9.7576131,8.1001839 9.482854,7.6002694 9.480154,7.5704884 9.495287,7.4063768 9.465507,7.4090768 9.3159879,7.2238755 c -0.00579,-0.063814 -0.030343,-0.093929 -0.074215,-0.089948 l -0.0027,-0.02978 0.032437,-0.039575 -0.0027,-0.029779 L 9.0455526,6.4341248 C 9.0071533,6.2325294 8.9367315,6.0533948 8.8341501,5.8978353 L 8.8189629,5.7304698 Z m 5.4015518,2.1635085 c 0.192873,0.087049 0.332314,0.1827292 0.418225,0.2875261 l 0.006,0.066112 -0.05957,0.07146 -0.07206,-0.059516 -0.248599,0.1192411 -0.06551,0.00594 -0.0385,-0.027133 0.0238,-0.1348725 -0.04439,-0.092053 c 0.0022,-0.1530035 0.02877,-0.2320059 0.08061,-0.2367102 z m -3.78717,4.4631634 0.155518,0.251315 0.0028,0.03039 -0.03574,0.0032 c -0.09172,-0.08015 -0.171663,-0.117136 -0.239466,-0.110984 l -0.0028,-0.03037 z" />
    <path
       id="text1"
       style="font-style:normal;font-variant:normal;font-weight:normal;font-stretch:normal;font-size:10.6303px;font-family:'The Battle Continuez';-inkscape-font-specification:'The Battle Continuez';text-align:start;writing-mode:lr-tb;direction:ltr;text-anchor:start;fill:#aaaaaa;fill-opacity:1;stroke-width:2.64582;stroke-linecap:round;stroke-opacity:0.377053"
       d="m 2.8291054,3.6683866 -0.033574,0.027068 c -0.152657,0.090254 -0.2862863,0.3275841 -0.4001968,0.7118898 -0.083755,0.0076 -0.095736,0.4069116 -0.036042,1.1976872 l 0.040643,0.1170147 -0.00373,0.2897847 0.013025,0.1435413 -0.027078,0.032482 -0.050266,0.4453363 0.1127975,0.5746624 -0.030376,0.00276 c -0.00257,0.1932494 -0.042689,0.3699105 -0.120669,0.5297912 l 0.040092,0.1771157 0.013025,0.1435413 -0.0081,0.1754835 0.034147,0.111599 C 2.3854744,8.4877318 2.2544933,8.6383105 1.9796382,8.7999714 L 1.7131378,8.7881237 C 1.5496163,8.802962 1.3767205,8.9355208 1.1943064,9.1853018 l 0.0054,0.05956 0.0466,0.1164741 -0.028116,0.087223 0.0054,0.05956 C 1.2373434,9.6596756 1.465633,9.7155507 1.9083379,9.6753786 L 2.0767505,9.605451 2.2913223,9.6406268 C 2.2071471,9.9981084 2.1713629,10.244415 2.1836678,10.380018 l 0.092853,1.023253 -0.034171,0.02712 c -0.00843,0.571771 -0.053962,0.907455 -0.1373701,1.007512 l 0.00762,0.08397 0.026527,0.02762 -0.023825,0.0022 -0.036267,0.268717 c 0.00796,0.08774 -0.00577,0.15506 -0.041671,0.20255 l 0.029347,0.323414 0.1376064,0.186283 c 0.2911482,-0.02642 0.465884,-0.1387 0.5242901,-0.337022 l -0.017889,-0.197184 c -0.013753,-0.151557 0.016266,-0.242775 0.089872,-0.273581 l -0.054265,-0.260502 c -0.00869,-0.09572 0.037265,-0.236599 0.1370033,-0.422582 l -0.00216,-0.02382 -0.043996,-0.147337 0.052049,-0.0948 -0.0374,-0.08127 0.021618,-0.09264 c 0.059825,-0.0054 0.088329,-0.02588 0.085072,-0.06177 l -0.0054,-0.05956 -0.067776,-0.07852 -0.028753,-0.316859 0.07782,-0.737283 -0.013566,-0.149498 0.1261491,-0.270868 -0.0054,-0.05956 -0.038439,-0.026538 c 0.039884,-0.00362 0.056829,-0.035517 0.0514,-0.095341 0.224447,-0.096768 0.3334692,-0.1832527 0.3265929,-0.2590311 l 1.2144422,-0.1102015 0.1782398,0.038473 c 0.7012083,0.016795 1.1290638,0.096223 1.2827699,0.2391005 0.1946679,0.1954574 0.3408093,0.4153351 0.4393883,0.6597261 0.1409953,0.268687 0.216841,0.457248 0.2266126,0.564933 0.1551466,0.203066 0.2365562,0.350243 0.2448802,0.441975 0.1935895,0.139258 0.3368797,0.3211 0.4296607,0.545909 l 0.036914,0.4068 0.3158894,0.291408 c 0.073578,0.146127 0.2097961,0.250035 0.4084743,0.312431 l 0.1197171,-0.01086 0.029409,-0.0068 c -0.027884,0.08511 -0.036866,0.189335 -0.025502,0.314579 0.010495,0.115662 0.1365899,0.180209 0.379147,0.194389 l 0.057466,-0.101297 0.1402763,0.08335 0.095296,-0.0086 c 0.1265494,-0.06777 0.1858362,-0.149149 0.1771503,-0.244869 0.4231397,-0.122842 0.6288283,-0.25044 0.6168851,-0.382056 l 0.1343318,0.01783 0.1500595,-0.139722 0.344451,-0.194596 0.02978,-0.0027 c 0.03589,-0.0033 0.07231,0.0482 0.10999,0.153358 0.265757,0.04827 0.405195,0.143945 0.418224,0.287527 -0.06382,0.0058 -0.09333,0.03029 -0.08934,0.07416 l 0.006,0.06612 0.214495,0.1733 0.08995,-0.07421 0.02978,-0.0027 0.03899,0.0325 0.0027,0.02978 -0.03245,0.03957 0.0027,0.02978 0.07482,0.0899 0.04124,0.454448 0.06551,-0.0059 -0.0087,-0.0959 0.03358,-0.364554 -0.0087,-0.09594 0.02978,-0.0027 0.107197,0.05632 0.0959,-0.0087 0.08725,-0.104 -0.0033,-0.03632 -0.07477,-0.0893 0.239369,-0.287147 -0.0028,-0.03038 c -0.111614,-0.166883 -0.245497,-0.317234 -0.402468,-0.451774 -0.06486,-0.183108 -0.130366,-0.307922 -0.196702,-0.374284 l -0.01789,-0.197141 0.230601,-0.310973 c 0.277744,-0.08552 0.412995,-0.173783 0.404671,-0.265515 l 0.404024,-0.266057 c 0.229181,-0.221856 0.597921,-0.474567 1.107017,-0.758013 0.423175,-0.3882783 0.666805,-0.585391 0.730618,-0.5911816 0.535573,-0.3461658 0.799061,-0.5649196 0.790737,-0.6566511 l 0.03632,-0.0033 0.03248,0.027078 0.03574,-0.00324 0.302819,-0.2562739 0.24476,-0.154923 c -0.0058,-0.063814 0.03519,-0.099876 0.122929,-0.1078374 0.279599,-0.2867467 0.41685,-0.4623022 0.41106,-0.5261156 L 16.066582,7.6303797 C 15.908892,7.487863 15.734281,7.3828699 15.543216,7.3157629 15.501531,7.2552067 15.248696,7.1037456 14.784284,6.8603841 14.472123,6.788181 14.166929,6.6851177 13.86928,6.5512801 13.721373,6.4279817 13.53692,6.3238816 13.31613,6.239366 12.427499,6.0626476 11.976478,5.8962262 11.962364,5.7406812 11.651274,5.7689103 11.206643,5.5483427 10.629147,5.0779936 10.426841,5.019949 10.324302,4.9744863 10.321407,4.9425796 9.3345376,4.6581616 8.8365959,4.462271 8.8268243,4.3545859 8.4417879,4.2769324 8.1894289,4.1373315 8.0705391,3.9349976 L 7.9064168,3.9859212 7.678895,4.0065671 7.5775984,3.9491023 C 7.5975035,4.1684606 7.5440411,4.2921656 7.4178627,4.3197002 L 7.2473081,4.6306281 7.4856917,5.0671866 c 0.1526204,0.1309131 0.2640139,0.2958096 0.3343196,0.4945098 0.079357,0.298408 0.1503205,0.4550696 0.2119547,0.4695827 l 0.00324,0.035736 -0.033631,0.033077 0.0033,0.036333 0.077517,0.1196737 0.095297,-0.00865 -0.006,-0.066112 -0.070918,-0.053616 C 8.108421,5.9018438 8.130705,5.7690639 8.167327,5.7295503 l -0.015187,-0.167366 0.02978,-0.0027 c 0.099709,-0.00905 0.1913695,0.1570387 0.2747047,0.4993189 l 0.5365447,1.1943705 -0.02379,0.1348717 0.038977,0.032494 c 0.114449,0.7295104 0.2231077,1.089499 0.3268049,1.0800893 L 9.5590487,9.167895 C 9.7417159,9.5856066 9.8470735,9.7933142 9.8749916,9.7907809 9.9760685,10.328489 10.08844,10.591709 10.212078,10.58049 l -0.02168,0.164707 c 0.0062,0.0678 0.0589,0.161428 0.158221,0.281094 l -0.0032,0.362394 c -0.195828,0.234914 -0.4671017,0.367864 -0.8140861,0.39935 -0.1178621,0.1635 -0.2406584,0.251233 -0.3682852,0.262814 -0.1902662,0.106299 -0.3302646,0.199876 -0.4388945,0.285435 l -0.01616,-0.178086 C 8.6170913,11.776397 8.5497669,11.587661 8.5058953,11.591642 L 8.5346623,11.504962 8.187796,10.944934 C 7.9464125,10.411914 7.7732872,10.098056 7.6681574,10.003044 7.477189,9.3609009 7.3322075,9.0444875 7.2324992,9.0535352 7.1553024,8.867524 7.0854571,8.7450883 7.0238298,8.6863418 L 6.3292907,8.1398472 C 6.2212803,7.9244627 6.1230444,7.8171074 6.0345771,7.8170928 6.0255293,7.7173844 5.9706366,7.643791 5.8698496,7.5966402 5.7767142,7.3236095 5.5974002,6.9700322 5.3327957,6.5356293 5.1954559,6.0856568 5.0556562,5.8044842 4.9128218,5.6927889 4.8555668,5.5049681 4.8069377,5.4129508 4.7670543,5.4165699 4.6590513,5.1569517 4.5892659,5.0285589 4.5573593,5.0314542 4.3746856,4.6579766 4.2501797,4.4645109 4.1845569,4.4503598 3.9728865,4.0232171 3.8172037,3.8141244 3.7174954,3.8231722 3.5956958,3.6773988 3.4254828,3.6142698 3.2061245,3.634175 Z m 0.489596,2.205688 0.1137609,-0.010323 c 0.2153699,-0.019543 0.441914,0.1045447 0.6793531,0.3725234 0.087322,0.3419182 0.2272509,0.6026394 0.4204711,0.7821436 0.2921391,0.5605819 0.452787,0.9337083 0.4817618,1.1200742 -0.035894,0.00326 -0.049979,0.044814 -0.04274,0.1245811 l -1.801116,0.1634377 c -0.00905,-0.099709 -0.041829,-0.1548683 -0.099112,-0.165755 l -0.00324,-0.035736 0.021662,-0.025987 -0.00276,-0.030376 -0.041714,-0.194984 0.023825,-0.00216 0.026537,-0.038438 C 3.0747621,7.7057381 3.0889404,7.5492863 3.1375388,7.4644529 l -0.00811,-0.089342 C 3.1138695,7.2036127 3.1508546,6.9486613 3.2408267,6.6107608 3.2517579,6.288075 3.2777028,6.0426617 3.3187009,5.8740733 Z M 9.0074612,5.6172831 c 0.231323,-0.020991 0.4343257,0.068921 0.6094148,0.2701773 l -0.083354,0.1402767 0.00594,0.065516 0.07151,0.060168 0.1770946,-0.2454653 0.029778,-0.0027 0.4063344,0.1564929 -0.02119,0.1040096 0.08082,0.1560053 0.05957,-0.00541 c -0.0018,-0.1084076 0.02733,-0.1658187 0.08715,-0.1712475 l 0.06611,-0.006 0.480552,0.2464403 0.05957,-0.00541 0.03357,-0.033673 0.07421,0.089948 0.906345,0.2798643 c 0.266488,0.012008 0.527201,0.1191085 0.78278,0.3211023 0.373434,0.082728 0.682555,0.2290813 0.926894,0.4401375 0.147567,-0.013391 0.293009,0.1484163 0.436168,0.4852678 l 0.02335,0.2573025 -0.03308,0.039032 c -0.08376,0.0076 -0.123833,0.031677 -0.120214,0.07156 l 0.0092,0.1018491 c 0.004,0.043872 0.03802,0.062605 0.101841,0.056814 l -0.185742,0.1435626 0.05639,0.2242783 c -0.07578,0.00688 -0.199523,0.084176 -0.371042,0.2324383 -0.199808,0.1910416 -0.628907,0.5133175 -1.28741,0.9671459 -0.08666,0.01992 -0.127634,0.05598 -0.122928,0.10784 -0.11566,0.0105 -0.356343,0.130748 -0.72149,0.36092 l -0.164111,-0.01513 -0.01837,0.128376 c -0.249115,0.179431 -0.389575,0.313014 -0.421859,0.400389 -0.203404,0.01846 -0.37105,-0.250271 -0.501846,-0.805386 l -0.01465,-0.161408 -0.07146,-0.05957 C 10.24607,9.6284639 10.164738,9.4384163 10.108902,9.4434829 l 0.0065,-0.2594087 C 10.047999,8.8845744 9.9725235,8.6497477 9.8887979,8.4804136 L 9.8654496,8.2231114 9.7576131,8.1001839 9.482854,7.6002694 9.480154,7.5704884 9.495287,7.4063768 9.465507,7.4090768 9.3159879,7.2238755 c -0.00579,-0.063814 -0.030343,-0.093929 -0.074215,-0.089948 l -0.0027,-0.02978 0.032437,-0.039575 -0.0027,-0.029779 L 9.0455526,6.4341248 C 9.0071533,6.2325294 8.9367315,6.0533948 8.8341501,5.8978353 L 8.8189629,5.7304698 Z m 5.4015518,2.1635085 c 0.192873,0.087049 0.332314,0.1827292 0.418225,0.2875261 l 0.006,0.066112 -0.05957,0.07146 -0.07206,-0.059516 -0.248599,0.1192411 -0.06551,0.00594 -0.0385,-0.027133 0.0238,-0.1348725 -0.04439,-0.092053 c 0.0022,-0.1530035 0.02877,-0.2320059 0.08061,-0.2367102 z m -3.78717,4.4631634 0.155518,0.251315 0.0028,0.03039 -0.03574,0.0032 c -0.09172,-0.08015 -0.171663,-0.117136 -0.239466,-0.110984 l -0.0028,-0.03037 z" />
  </g>
</svg>
