<?xml version="1.0" encoding="UTF-8" standalone="no"?>
<!-- Created with Inkscape (http://www.inkscape.org/) -->

<svg
   width="64"
   height="64"
   viewBox="0 0 16.933333 16.933333"
   version="1.1"
   id="svg1"
   inkscape:version="1.4 (e7c3feb100, 2024-10-09)"
   sodipodi:docname="icon.svg"
   xmlns:inkscape="http://www.inkscape.org/namespaces/inkscape"
   xmlns:sodipodi="http://sodipodi.sourceforge.net/DTD/sodipodi-0.dtd"
   xmlns="http://www.w3.org/2000/svg"
   xmlns:svg="http://www.w3.org/2000/svg">
  <sodipodi:namedview
     id="namedview1"
     pagecolor="#ffffff"
     bordercolor="#000000"
     borderopacity="0.25"
     inkscape:showpageshadow="2"
     inkscape:pageopacity="0.0"
     inkscape:pagecheckerboard="0"
     inkscape:deskcolor="#d1d1d1"
     inkscape:document-units="mm"
     inkscape:zoom="12.608642"
     inkscape:cx="32.438068"
     inkscape:cy="32.715655"
     inkscape:window-width="3376"
     inkscape:window-height="1342"
     inkscape:window-x="0"
     inkscape:window-y="0"
     inkscape:window-maximized="1"
     inkscape:current-layer="layer1" />
  <defs
     id="defs1">
    <filter
       inkscape:collect="always"
       style="color-interpolation-filters:sRGB"
       id="filter1"
       x="-0.040772749"
       y="-0.056524009"
       width="1.0815455"
       height="1.113048">
      <feGaussianBlur
         inkscape:collect="always"
         stdDeviation="0.25452119"
         id="feGaussianBlur1" />
    </filter>
  </defs>
  <g
     inkscape:label="Layer 1"
     inkscape:groupmode="layer"
     id="layer1">
    <path
       id="path1"
       style="font-style:normal;font-variant:normal;font-weight:normal;font-stretch:normal;font-size:10.6303px;font-family:'The Battle Continuez';-inkscape-font-specification:'The Battle Continuez';text-align:start;writing-mode:lr-tb;direction:ltr;text-anchor:start;opacity:1;mix-blend-mode:normal;fill:#111111;fill-opacity:1;stroke-width:2.64582;stroke-linecap:round;stroke-opacity:0.377053;filter:url(#filter1)"
       d="m 3.4254063,3.1143387 -0.035883,0.023923 c -0.1601887,0.076089 -0.314719,0.3003717 -0.4628936,0.6728106 -0.084099,0 -0.1321169,0.3965948 -0.144131,1.1895293 l 0.029902,0.1202088 -0.029902,0.288262 v 0.144131 l -0.029903,0.029902 -0.090306,0.4389715 0.060403,0.5825046 h -0.030501 c -0.020024,0.1922263 -0.075944,0.364539 -0.1680531,0.5167184 l 0.023922,0.1800141 v 0.1441311 l -0.023922,0.1740337 0.023922,0.1142283 c 0,0.1401653 -0.1440531,0.278291 -0.432393,0.4144514 L 1.8513284,8.1122753 c -0.1641934,0 -0.3483612,0.1163916 -0.5526018,0.3486655 v 0.059805 l 0.035883,0.1202088 -0.035883,0.084325 v 0.059805 c 0,0.1521794 0.2223063,0.2284567 0.6668301,0.2284567 l 0.1740337,-0.054423 0.2105149,0.054423 C 2.2339685,9.3619531 2.1760717,9.6040181 2.1760717,9.7401781 v 1.0274579 l -0.036482,0.02392 c -0.06007,0.56867 -0.1357496,0.898866 -0.2278581,0.990975 v 0.08432 l 0.023923,0.0299 h -0.023923 l -0.060403,0.26434 c 0,0.0881 -0.019758,0.153904 -0.059805,0.197955 v 0.324743 l 0.1202088,0.197956 c 0.2923444,0 0.4765121,-0.09603 0.5526018,-0.288262 v -0.197955 c 0,-0.15218 0.038139,-0.240312 0.1142283,-0.26434 l -0.030501,-0.26434 c 0,-0.09611 0.058494,-0.232263 0.1746318,-0.408471 v -0.02392 l -0.030501,-0.15071 0.060403,-0.08971 -0.029902,-0.08432 0.029902,-0.09031 c 0.060071,0 0.090306,-0.01779 0.090306,-0.05383 v -0.0598 l -0.060403,-0.08432 V 10.503296 L 2.9266294,9.7760611 v -0.150112 l 0.1501115,-0.258359 v -0.059805 l -0.035883,-0.029903 c 0.040048,0 0.059806,-0.030236 0.059806,-0.090306 0.2322736,-0.076089 0.3486654,-0.1523669 0.3486654,-0.2284566 h 1.219432 l 0.1740336,0.054423 c 0.6968213,0.080095 1.1157481,0.1978638 1.2559132,0.3540476 0.1762077,0.21225 0.3018805,0.444435 0.3779702,0.6967349 0.1161368,0.280329 0.1746317,0.474974 0.1746317,0.583101 0.1361605,0.216256 0.2039364,0.370188 0.2039364,0.462297 0.1802124,0.156183 0.3064831,0.35023 0.3785681,0.582504 v 0.408471 l 0.288262,0.318763 c 0.060071,0.152179 0.1863416,0.267972 0.3785681,0.348067 h 0.120209 l 0.029902,-0.0041 c -0.035461,0.08224 -0.053826,0.185229 -0.053826,0.310987 0,0.116137 0.1197453,0.191816 0.3600284,0.227858 l 0.066385,-0.09569 0.1321695,0.09569 h 0.095688 c 0.1321564,-0.05606 0.1985546,-0.131745 0.1985546,-0.227858 0.4325096,-0.0841 0.6488877,-0.192587 0.6488877,-0.324744 l 0.132171,0.0299 0.1620721,-0.12559 0.3606271,-0.162671 h 0.0299 c 0.03604,0 0.06766,0.05454 0.09568,0.162671 0.260308,0.07209 0.390529,0.179974 0.390529,0.324145 -0.06408,0 -0.09568,0.02173 -0.09568,0.06578 v 0.06639 l 0.197956,0.191975 0.09629,-0.06578 h 0.0299 l 0.03589,0.03589 v 0.0299 l -0.03589,0.03648 v 0.0299 l 0.06639,0.09629 v 0.456315 h 0.06578 v -0.09629 l 0.06639,-0.360028 v -0.09633 h 0.0299 l 0.101669,0.06578 h 0.09629 l 0.09629,-0.09569 v -0.03647 l -0.06639,-0.09569 0.26434,-0.26434 v -0.0305 C 11.522637,12.7355 11.402889,12.573665 11.258719,12.42549 11.210669,12.237269 11.156714,12.107046 11.096646,12.034961 V 11.83701 l 0.257761,-0.288861 c 0.284336,-0.06007 0.42701,-0.135749 0.42701,-0.227858 l 0.426413,-0.228456 c 0.248293,-0.200237 0.638362,-0.418591 1.17099,-0.654869 0.456533,-0.348447 0.716979,-0.5227369 0.781054,-0.5227369 0.564665,-0.296349 0.846844,-0.490396 0.846844,-0.5825044 h 0.03647 l 0.0299,0.029902 h 0.03589 l 0.32474,-0.2278591 0.257759,-0.1321698 c 0,-0.064076 0.04407,-0.096287 0.132171,-0.096287 0.304365,-0.2603063 0.45692,-0.4227399 0.45692,-0.4868154 L 16.250673,8.2564063 C 16.106503,8.1002222 15.942094,7.9798788 15.757876,7.8957797 15.721834,7.8317042 15.483721,7.6580138 15.043202,7.3736786 14.738844,7.2735607 14.444212,7.1433383 14.159876,6.9831494 14.023717,6.846989 13.849427,6.7266457 13.637178,6.6225229 c -0.869025,-0.256302 -1.30316,-0.4628017 -1.30316,-0.6189857 -0.312368,0 -0.735247,-0.2598469 -1.267874,-0.7804604 C 10.869912,5.1469871 10.771901,5.0924439 10.771901,5.0604061 9.8147719,4.6879672 9.3365708,4.4478786 9.3365708,4.3397511 8.9601275,4.2276191 8.721417,4.0657835 8.6212989,3.8535333 L 8.4532461,3.8894166 H 8.2247895 l -0.095689,-0.066384 c 0,0.2202596 -0.064423,0.338627 -0.1925734,0.354646 L 7.7385715,4.471921 7.9365273,4.9282362 c 0.1401652,0.1441699 0.236201,0.3184584 0.2882622,0.5226992 0.052065,0.3043586 0.1085802,0.4667922 0.1686507,0.4868158 v 0.035883 l -0.036483,0.029902 v 0.036482 l 0.066385,0.1261893 h 0.095688 V 6.0998239 L 8.4532479,6.0400189 C 8.4812764,5.8157546 8.5154716,5.6855321 8.5555145,5.6494898 V 5.4814361 h 0.029902 c 0.1001181,0 0.1763946,0.1736904 0.2284566,0.5221011 l 0.4264125,1.2379715 -0.035881,0.1321699 0.035881,0.035883 C 9.2883396,8.1464298 9.3640208,8.514765 9.4681438,8.514765 l 0.162671,0.6847718 c 0.1441711,0.4325103 0.2303261,0.6488893 0.2583591,0.6488893 0.05207,0.5446429 0.1401941,0.8169419 0.2643411,0.8169419 l -0.03648,0.162073 c 0,0.06808 0.04407,0.166091 0.13217,0.294243 l -0.03589,0.360626 C 9.9970589,11.698565 9.7148802,11.806456 9.3664698,11.806456 9.2343147,11.958635 9.1040923,12.034912 8.9759411,12.034912 8.776847,12.123582 8.6289648,12.204124 8.5130474,12.279516 V 12.100698 C 8.4569782,11.71224 8.4069855,11.518193 8.3629337,11.518193 L 8.3994167,11.434463 8.1045801,10.84538 C 7.9123536,10.29273 7.7683005,9.9645109 7.6721872,9.8603861 7.5400314,9.2036129 7.4242378,8.875392 7.3241198,8.875392 7.264049,8.6831655 7.2055541,8.5549188 7.149488,8.4908434 L 6.5071782,7.8838186 C 6.4190743,7.6595544 6.3309422,7.5437607 6.2428382,7.5357513 6.2428382,7.4356332 6.1948208,7.3573802 6.0987073,7.3013141 6.0306271,7.0209839 5.884,6.6526485 5.6597357,6.1961105 5.5636225,5.7355677 5.4498047,5.4429117 5.3176488,5.3187654 5.2776017,5.1265389 5.2374873,5.0305034 5.19744,5.0305034 5.1133409,4.7621872 5.0554441,4.6280132 5.0234064,4.6280132 4.8752318,4.2395554 4.7687191,4.0356295 4.7046436,4.0156059 4.5324407,3.5710821 4.3962909,3.3487758 4.2961729,3.3487758 4.1880454,3.1925917 4.024234,3.1143387 3.8039744,3.1143387 Z m 0.288262,2.240908 h 0.1142283 c 0.2162548,0 0.4306579,0.1440532 0.6429079,0.432393 0.056065,0.3484105 0.1718598,0.6207104 0.3480674,0.8169417 0.2402832,0.584689 0.3665539,0.9708066 0.3785681,1.1590284 -0.036041,0 -0.053824,0.040114 -0.053824,0.1202088 H 3.3351001 c 0,-0.1001184 -0.027662,-0.1580147 -0.083727,-0.1740336 V 7.673902 L 3.2752951,7.649979 V 7.6194782 L 3.2513726,7.4215223 h 0.023923 l 0.029902,-0.035883 c 0,-0.228269 0.028259,-0.3827993 0.084325,-0.4628937 v -0.089709 c 0,-0.1722029 0.059874,-0.4227687 0.1800144,-0.7511557 0.040048,-0.3203776 0.088065,-0.562442 0.1441309,-0.7266355 z m 5.6886885,0.2583592 c 0.232274,0 0.4263201,0.1078898 0.5825051,0.3241453 l -0.09569,0.1321699 v 0.065785 l 0.06578,0.066384 0.1985531,-0.2284566 h 0.0299 l 0.390529,0.1925734 -0.0305,0.1016693 0.06639,0.1626707 h 0.05981 c 0.008,-0.1081271 0.0422,-0.1626707 0.102272,-0.1626707 h 0.06638 l 0.456314,0.28886 h 0.05981 l 0.03648,-0.030501 0.06578,0.096287 0.877344,0.3606265 c 0.264313,0.036042 0.51428,0.1662649 0.750559,0.3905292 0.36443,0.1161369 0.659061,0.2898273 0.883326,0.5221011 0.148174,0 0.278397,0.1742885 0.390529,0.5226991 v 0.2583597 l -0.03647,0.035883 c -0.0841,0 -0.126189,0.020356 -0.126189,0.060403 v 0.1022676 c 0,0.044052 0.03221,0.065785 0.09629,0.065785 l -0.197956,0.1261894 0.03589,0.2284566 c -0.07609,0 -0.206313,0.0658 -0.390529,0.1979557 -0.216255,0.172203 -0.672723,0.4543818 -1.369544,0.8468439 -0.08811,0.01201 -0.132171,0.04422 -0.132171,0.09629 -0.116135,0 -0.366701,0.09801 -0.751155,0.294242 l -0.162072,-0.0299 -0.0299,0.12619 c -0.264311,0.156184 -0.416268,0.276527 -0.456316,0.360627 -0.20424,0 -0.346916,-0.282779 -0.42701,-0.847444 v -0.16207 l -0.06578,-0.06578 C 10.273403,9.7203081 10.209579,9.5236881 10.153514,9.5236881 l 0.0299,-0.2577613 C 10.143369,8.9615626 10.089423,8.7208759 10.021343,8.5446683 V 8.286309 L 9.9250569,8.1541391 9.6966002,7.6314399 v -0.029903 l 0.0299,-0.1620725 h -0.0299 L 9.5644298,7.2415087 c 0,-0.064076 -0.02173,-0.096287 -0.06578,-0.096287 v -0.029902 l 0.03588,-0.036482 V 7.0489359 L 9.3664738,6.4305476 C 9.3464499,6.2263069 9.2925049,6.0415412 9.2044013,5.8773478 V 5.7092946 Z m 5.1839322,2.6428004 c 0.184217,0.1041227 0.31444,0.2120131 0.390529,0.3241451 v 0.066384 l -0.06578,0.065785 -0.06639,-0.065785 -0.258358,0.096287 h -0.06578 l -0.03589,-0.030501 0.03589,-0.1321699 -0.03589,-0.095688 c 0.01601,-0.1521794 0.04962,-0.2284565 0.10167,-0.228457 z m -4.175015,4.1026507 0.13217,0.264341 v 0.03051 h -0.03589 c -0.0841,-0.08811 -0.160375,-0.132171 -0.228457,-0.132171 v -0.0305 z" />
    <path
       id="text1"
       style="font-style:normal;font-variant:normal;font-weight:normal;font-stretch:normal;font-size:10.6303px;font-family:'The Battle Continuez';-inkscape-font-specification:'The Battle Continuez';text-align:start;writing-mode:lr-tb;direction:ltr;text-anchor:start;fill:#aaaaaa;fill-opacity:1;stroke-width:2.64582;stroke-linecap:round;stroke-opacity:0.377053"
       d="m 2.9710576,2.6390056 -0.035883,0.023923 c -0.1601887,0.076089 -0.314719,0.3003717 -0.4628936,0.6728106 -0.084099,0 -0.1321169,0.3965948 -0.144131,1.1895293 L 2.358052,4.6454773 2.32815,4.9337393 v 0.144131 L 2.298247,5.1077723 2.207941,5.5467438 2.268344,6.1292484 H 2.237843 C 2.217819,6.3214747 2.161899,6.4937874 2.0697899,6.6459668 l 0.023922,0.1800141 V 6.970112 l -0.023922,0.1740337 0.023922,0.1142283 c 0,0.1401653 -0.1440531,0.278291 -0.432393,0.4144514 L 1.3969797,7.6369422 c -0.1641934,0 -0.3483612,0.1163916 -0.55260182,0.3486655 v 0.059805 l 0.035883,0.1202088 -0.035883,0.084325 v 0.059805 c 0,0.1521794 0.22230632,0.2284567 0.66683012,0.2284567 l 0.1740337,-0.054423 0.2105149,0.054423 C 1.7796198,8.88662 1.721723,9.128685 1.721723,9.264845 v 1.027457 l -0.036482,0.02392 c -0.06007,0.56867 -0.1357496,0.898866 -0.2278581,0.990975 v 0.08432 l 0.023923,0.0299 h -0.023923 l -0.060403,0.26434 c 0,0.0881 -0.019758,0.153904 -0.059805,0.197955 v 0.324743 l 0.1202088,0.197956 c 0.2923444,0 0.4765121,-0.09603 0.5526018,-0.288262 v -0.197955 c 0,-0.15218 0.038139,-0.240312 0.1142283,-0.26434 l -0.030501,-0.26434 c 0,-0.09611 0.058494,-0.232263 0.1746318,-0.408471 v -0.02392 l -0.030501,-0.15071 0.060403,-0.08971 -0.029902,-0.08432 0.029902,-0.09031 c 0.060071,0 0.090306,-0.01779 0.090306,-0.05383 v -0.0598 l -0.060403,-0.08432 V 10.027962 L 2.4722807,9.300728 V 9.150616 L 2.6223922,8.892257 V 8.832452 L 2.5865092,8.802549 c 0.040048,0 0.059806,-0.030236 0.059806,-0.090306 C 2.8785888,8.636154 2.9949806,8.5598761 2.9949806,8.4837864 h 1.219432 l 0.1740336,0.054423 c 0.6968213,0.080095 1.1157481,0.1978638 1.2559132,0.3540476 0.1762077,0.21225 0.3018805,0.444435 0.3779702,0.6967341 0.1161368,0.2803292 0.1746317,0.4749739 0.1746317,0.5831009 0.1361605,0.216256 0.2039364,0.370188 0.2039364,0.462297 0.1802124,0.156183 0.3064831,0.35023 0.3785681,0.582504 v 0.408471 l 0.288262,0.318763 c 0.060071,0.152179 0.1863416,0.267972 0.3785681,0.348067 h 0.120209 l 0.029902,-0.0041 c -0.035461,0.08224 -0.053826,0.185229 -0.053826,0.310987 0,0.116137 0.1197453,0.191816 0.3600284,0.227858 l 0.066385,-0.09569 0.1321695,0.09569 h 0.095688 c 0.1321564,-0.05606 0.1985546,-0.131745 0.1985546,-0.227858 0.4325096,-0.0841 0.6488877,-0.192587 0.6488877,-0.324744 l 0.1321705,0.0299 0.1620724,-0.12559 0.3606271,-0.162671 h 0.0299 c 0.03604,0 0.06766,0.05454 0.09568,0.162671 0.2603079,0.07209 0.3905289,0.179974 0.3905289,0.324145 -0.06408,0 -0.09568,0.02173 -0.09568,0.06578 v 0.06639 l 0.197956,0.191975 0.09629,-0.06578 h 0.0299 l 0.03589,0.03589 v 0.0299 l -0.03589,0.03648 v 0.0299 l 0.06639,0.09629 v 0.456315 h 0.06578 v -0.09629 l 0.06639,-0.360028 v -0.09633 h 0.0299 l 0.101669,0.06578 h 0.09629 l 0.09629,-0.09569 v -0.03647 l -0.06639,-0.09569 0.26434,-0.26434 v -0.0305 C 11.068288,12.260166 10.94854,12.098331 10.80437,11.950156 10.75632,11.761935 10.702365,11.631712 10.642297,11.559627 v -0.197951 l 0.257761,-0.288861 c 0.284336,-0.06007 0.42701,-0.135749 0.42701,-0.227858 l 0.426413,-0.228456 C 12.001774,10.416264 12.391843,10.19791 12.924471,9.9616319 13.381004,9.6131851 13.64145,9.438896 13.705525,9.438896 14.27019,9.142547 14.552369,8.9485 14.552369,8.8563916 h 0.03647 l 0.0299,0.029902 h 0.03589 l 0.32474,-0.2278591 0.257759,-0.1321698 c 0,-0.064076 0.04407,-0.096287 0.132171,-0.096287 0.304365,-0.2603063 0.45692,-0.4227399 0.45692,-0.4868154 l -0.0299,-0.1620891 C 15.652154,7.6248891 15.487745,7.5045457 15.303527,7.4204466 15.267485,7.3563711 15.029372,7.1826807 14.588853,6.8983455 14.284495,6.7982276 13.989863,6.6680052 13.705527,6.5078163 13.569368,6.3716559 13.395078,6.2513126 13.182829,6.1471898 c -0.869025,-0.256302 -1.30316,-0.4628017 -1.30316,-0.6189857 -0.312368,0 -0.735247,-0.2598469 -1.267874,-0.7804604 C 10.415563,4.671654 10.317552,4.6171108 10.317552,4.585073 9.3604234,4.2126341 8.8822221,3.9725455 8.8822221,3.864418 8.5057788,3.752286 8.2670683,3.5904504 8.1669502,3.3782002 L 7.9988974,3.4140835 H 7.7704408 l -0.095689,-0.066384 c 0,0.2202596 -0.064423,0.338627 -0.1925734,0.354646 L 7.2842228,3.9965879 7.4821786,4.4529031 c 0.1401652,0.1441699 0.236201,0.3184584 0.2882622,0.5226992 0.052065,0.3043586 0.1085802,0.4667922 0.1686507,0.4868158 v 0.035883 l -0.036483,0.029902 v 0.036482 l 0.066385,0.1261893 h 0.095688 V 5.6244908 L 7.9988992,5.5646858 C 8.0269277,5.3404215 8.0611229,5.210199 8.1011658,5.1741567 V 5.006103 h 0.029902 c 0.1001181,0 0.1763946,0.1736904 0.2284566,0.5221011 l 0.4264125,1.2379715 -0.035881,0.1321699 0.035881,0.035883 c 0.048054,0.7368682 0.1237355,1.1052034 0.2278587,1.1052034 L 9.1764659,8.7242037 C 9.3206366,9.156714 9.4067923,9.373093 9.4348251,9.373093 c 0.05207,0.5446419 0.140194,0.816941 0.264341,0.816941 l -0.03648,0.162073 c 0,0.06808 0.04407,0.166091 0.1321698,0.294243 l -0.03589,0.360626 c -0.216256,0.216255 -0.4984346,0.324146 -0.8468447,0.324146 -0.1321554,0.152179 -0.2623778,0.228456 -0.390529,0.228456 -0.1990941,0.08867 -0.3469763,0.169212 -0.4628937,0.244604 V 11.625364 C 8.0026295,11.236906 7.9526368,11.042859 7.908585,11.042859 L 7.945068,10.959129 7.6502314,10.370046 C 7.4580049,9.8173963 7.3139518,9.489177 7.2178385,9.385053 7.0856827,8.7282798 6.9698891,8.4000589 6.8697711,8.4000589 6.8097003,8.2078324 6.7512054,8.0795857 6.6951393,8.0155103 L 6.0528295,7.4084855 C 5.9647256,7.1842213 5.8765935,7.0684276 5.7884895,7.0604182 5.7884895,6.9603001 5.7404721,6.8820471 5.6443586,6.825981 5.5762784,6.5456508 5.4296513,6.1773154 5.205387,5.7207774 5.1092738,5.2602346 4.995456,4.9675786 4.8633001,4.8434323 4.823253,4.6512058 4.7831386,4.5551703 4.7430913,4.5551703 4.6589922,4.2868541 4.6010954,4.1526801 4.5690577,4.1526801 4.4208831,3.7642223 4.3143704,3.5602964 4.2502949,3.5402728 4.078092,3.095749 3.9419422,2.8734427 3.8418242,2.8734427 3.7336967,2.7172586 3.5698853,2.6390056 3.3496257,2.6390056 Z m 0.288262,2.240908 h 0.1142283 c 0.2162548,0 0.4306579,0.1440532 0.6429079,0.432393 0.056065,0.3484105 0.1718598,0.6207104 0.3480674,0.8169417 0.2402832,0.584689 0.3665539,0.9708066 0.3785681,1.1590284 -0.036041,0 -0.053824,0.040114 -0.053824,0.1202088 H 2.8807514 c 0,-0.1001184 -0.027662,-0.1580147 -0.083727,-0.1740336 v -0.035883 l 0.023922,-0.023923 V 7.1441451 L 2.7970239,6.9461892 h 0.023923 l 0.029902,-0.035883 c 0,-0.228269 0.028259,-0.3827993 0.084325,-0.4628937 v -0.089709 c 0,-0.1722029 0.059874,-0.4227687 0.1800144,-0.7511557 0.040048,-0.3203776 0.088065,-0.562442 0.1441309,-0.7266355 z m 5.6886888,0.2583592 c 0.2322734,0 0.42632,0.1078898 0.5825047,0.3241453 l -0.09569,0.1321699 v 0.065785 l 0.06578,0.066384 0.198553,-0.2284566 h 0.0299 l 0.3905289,0.1925734 -0.0305,0.1016693 0.06639,0.1626707 h 0.05981 c 0.008,-0.1081271 0.0422,-0.1626707 0.102272,-0.1626707 h 0.06638 l 0.456315,0.28886 h 0.05981 l 0.03648,-0.030501 0.06578,0.096287 0.877344,0.3606265 c 0.264313,0.036042 0.51428,0.1662649 0.750559,0.3905292 0.36443,0.1161369 0.65906,0.2898273 0.883326,0.5221011 0.148173,0 0.278397,0.1742885 0.390529,0.5226991 v 0.2583597 l -0.03647,0.035883 c -0.0841,0 -0.126189,0.020356 -0.126189,0.060403 v 0.1022676 c 0,0.044052 0.03221,0.065785 0.09629,0.065785 l -0.197956,0.1261894 0.03589,0.2284566 c -0.07609,0 -0.206313,0.0658 -0.390529,0.1979557 -0.216255,0.172203 -0.672723,0.454382 -1.369544,0.8468433 -0.08811,0.01201 -0.132171,0.04422 -0.132171,0.09629 -0.116135,0 -0.366701,0.09801 -0.751155,0.2942417 l -0.162072,-0.0299 -0.0299,0.12619 c -0.264311,0.156184 -0.416268,0.276527 -0.456316,0.360627 -0.20424,0 -0.346915,-0.282779 -0.4270091,-0.8474433 V 9.7032231 l -0.06578,-0.06578 C 9.8190539,9.244975 9.7552301,9.048355 9.6991651,9.048355 l 0.0299,-0.2577613 C 9.6890201,8.4862295 9.6350741,8.2455428 9.5669941,8.0693352 V 7.8109759 L 9.4707081,7.678806 9.2422512,7.1561068 V 7.1262038 L 9.2721532,6.9641313 H 9.2422512 L 9.1100808,6.7661756 c 0,-0.064076 -0.02173,-0.096287 -0.065783,-0.096287 v -0.029902 l 0.035881,-0.036482 V 6.5736028 L 8.912125,5.9552145 C 8.8921012,5.7509738 8.8381562,5.5662081 8.7500526,5.4020147 V 5.2339615 Z M 14.13194,7.7810732 c 0.184217,0.1041227 0.31444,0.2120131 0.390529,0.3241451 v 0.066384 l -0.06578,0.065785 -0.06639,-0.065785 -0.258358,0.096287 h -0.06578 l -0.03589,-0.030501 0.03589,-0.1321699 -0.03589,-0.095688 c 0.01601,-0.1521794 0.04962,-0.2284565 0.10167,-0.228457 z m -4.1750151,4.1026498 0.1321701,0.264341 v 0.03051 h -0.03589 c -0.0841,-0.08811 -0.1603751,-0.132171 -0.2284571,-0.132171 v -0.0305 z" />
  </g>
</svg>
